#!OML:ASF H:\ManfredETheater\Project 1\Capture day 1\Session 1\subject.ASF
:FULLY-SPECIFIED
:DEGREES
62
root 1.81427 16.023 -14.3649 6.51838 14.1967 -4.56846
lowerback 21.6618 -0.62201 8.76237
upperback 1.9903 1.93069 5.63968
thorax -9.89237 0.693755 0.683493
lowerneck -18.403 -3.50226 -3.07823
upperneck 9.98467 -3.28104 -4.56253
head 5.99649 -2.09623 -1.30849
rclavicle -1.43125e-014 -2.22639e-014
rhumerus -39.7371 4.49696 -66.8468
rradius 93.6498
rwrist -6.65899
rhand -31.8751 9.46718
rfingers 7.12502
rthumb -5.12818 -20.4508
lclavicle -1.43125e-014 -2.22639e-014
lhumerus -51.2627 -16.7552 106.363
lradius 110.765
lwrist 13.0421
lhand -19.8006 -12.6486
lfingers 7.12502
lthumb 6.53234 17.2307
rfemur -14.9925 -0.856441 4.84263
rtibia 49.012
rfoot -12.1777 -23.6968
rtoes -48.2364
lfemur -53.91 1.11825 -12.6198
ltibia 90.5438
lfoot -20.9323 -0.513193
ltoes -4.84194
63
root 1.9848 16.1255 -13.9021 6.539 14.4523 -4.49901
lowerback 21.2995 -0.395565 8.71144
upperback 1.94071 2.15325 5.48295
thorax -9.73295 0.800752 0.472281
lowerneck -18.2259 -3.83083 -3.36863
upperneck 10.0467 -3.71593 -4.15184
head 5.9953 -2.28395 -1.17325
rclavicle -2.3059e-014 -4.6118e-014
rhumerus -39.9372 5.08777 -66.926
rradius 94.1979
rwrist -6.46172
rhand -31.7538 9.71466
rfingers 7.12502
rthumb -5.011 -20.2061
lclavicle -2.3059e-014 -4.6118e-014
lhumerus -52.1808 -16.0071 106.073
lradius 111.484
lwrist 13.1901
lhand -19.3166 -12.5288
lfingers 7.12502
lthumb 6.99956 17.3355
rfemur -12.2733 -0.0236887 5.07352
rtibia 47.0846
rfoot -10.1279 -24.3783
rtoes -47.3959
lfemur -54.675 0.942679 -11.5429
ltibia 87.5675
lfoot -20.3204 -0.658893
ltoes -4.87695
64
root 2.15884 16.2287 -13.4355 6.56014 14.734 -4.45451
lowerback 20.8947 -0.197421 8.64574
upperback 1.88753 2.3321 5.33178
thorax -9.55589 0.889016 0.291533
lowerneck -18.0414 -4.14052 -3.65889
upperneck 10.1472 -4.12741 -3.72971
head 6.00888 -2.46034 -1.03262
rclavicle 1.59028e-014 -1.90833e-014
rhumerus -40.2193 5.67882 -67.025
rradius 94.6075
rwrist -6.41058
rhand -31.6647 9.90891
rfingers 7.12502
rthumb -4.92499 -20.0139
lclavicle 1.59028e-014 -1.90833e-014
lhumerus -53.0271 -15.1764 105.699
lradius 112.099
lwrist 12.9298
lhand -18.9005 -12.4858
lfingers 7.12502
lthumb 7.40121 17.3647
rfemur -9.70757 0.73407 5.42355
rtibia 45.2797
rfoot -7.68889 -25.0881
rtoes -46.0106
lfemur -55.2016 0.660246 -10.3511
ltibia 84.3559
lfoot -19.4908 -0.877159
ltoes -4.90869
65
root 2.33482 16.331 -12.965 6.59175 15.0467 -4.41239
lowerback 20.437 -0.0261315 8.53431
upperback 1.83261 2.46029 5.17988
thorax -9.35517 0.956468 0.15315
lowerneck -17.8557 -4.42968 -3.94032
upperneck 10.2863 -4.51522 -3.29841
head 6.03772 -2.62503 -0.888855
rclavicle 3.02153e-014 2.54444e-014
rhumerus -40.5728 6.25839 -67.1626
rradius 94.8718
rwrist -6.53313
rhand -31.5936 10.0198
rfingers 7.12502
rthumb -4.85637 -19.9046
lclavicle 3.02153e-014 2.54444e-014
lhumerus -53.7944 -14.3023 105.244
lradius 112.619
lwrist 12.3329
lhand -18.5558 -12.5187
lfingers 7.12502
lthumb 7.73389 17.3199
rfemur -7.31966 1.40215 5.86625
rtibia 43.635
rfoot -4.9188 -25.8753
rtoes -44.0013
lfemur -55.5024 0.282142 -9.08439
ltibia 80.9314
lfoot -18.4156 -1.14601
ltoes -4.8657
66
root 2.51056 16.4304 -12.4908 6.63708 15.3836 -4.36367
lowerback 19.9304 0.123178 8.35028
upperback 1.77684 2.53914 5.02279
thorax -9.13312 1.00436 0.0662367
lowerneck -17.6781 -4.6943 -4.21184
upperneck 10.468 -4.87583 -2.84533
head 6.08476 -2.7752 -0.738085
rclavicle 1.39149e-014 4.92986e-014
rhumerus -40.9909 6.81099 -67.3566
rradius 94.981
rwrist -6.80507
rhand -31.5326 10.0438
rfingers 7.12502
rthumb -4.79747 -19.8819
lclavicle 1.39149e-014 4.92986e-014
lhumerus -54.4792 -13.4293 104.712
lradius 113.057
lwrist 11.5085
lhand -18.3147 -12.628
lfingers 7.12502
lthumb 7.96659 17.2019
rfemur -5.12471 1.99692 6.39261
rtibia 42.1832
rfoot -1.90074 -26.7285
rtoes -41.3361
lfemur -55.5915 -0.166168 -7.76783
ltibia 77.3257
lfoot -17.0907 -1.4255
ltoes -4.77875
67
root 2.68472 16.5248 -12.0132 6.69999 15.7304 -4.28558
lowerback 19.3818 0.258978 8.06446
upperback 1.72262 2.57467 4.85063
thorax -8.89146 1.03598 0.0338972
lowerneck -17.5134 -4.9412 -4.48076
upperneck 10.6933 -5.21899 -2.35569
head 6.1515 -2.91449 -0.575631
rclavicle 1.19271e-015 -3.81667e-014
rhumerus -41.4746 7.31434 -67.6157
rradius 94.9328
rwrist -7.16601
rhand -31.453 9.9838
rfingers 7.12502
rthumb -4.72056 -19.9436
lclavicle 1.19271e-015 -3.81667e-014
lhumerus -55.076 -12.6056 104.103
lradius 113.434
lwrist 10.5863
lhand -18.1828 -12.789
lfingers 7.12502
lthumb 8.09393 17.036
rfemur -3.12915 2.53774 6.97386
rtibia 40.9609
rfoot 1.16167 -27.5539
rtoes -38.175
lfemur -55.4791 -0.671866 -6.44076
ltibia 73.5746
lfoot -15.509 -1.6614
ltoes -4.62965
68
root 2.85581 16.612 -11.5325 6.77717 16.0733 -4.17116
lowerback 18.8022 0.388263 7.65931
upperback 1.67138 2.57552 4.65894
thorax -8.63466 1.05537 0.0582198
lowerneck -17.3596 -5.17039 -4.74257
upperneck 10.9561 -5.54706 -1.82768
head 6.23562 -3.04332 -0.401688
rclavicle 3.02153e-014 -4.13472e-014
rhumerus -42.0295 7.75049 -67.9451
rradius 94.7354
rwrist -7.54774
rhand -31.3582 9.8219
rfingers 7.12502
rthumb -4.62903 -20.1075
lclavicle 3.02153e-014 -4.13472e-014
lhumerus -55.5793 -11.8745 103.422
lradius 113.773
lwrist 9.69479
lhand -18.1377 -12.9633
lfingers 7.12502
lthumb 8.13747 16.86
rfemur -1.33759 3.05757 7.60526
rtibia 40.0145
rfoot 4.05798 -28.1636
rtoes -34.8274
lfemur -55.1776 -1.22537 -5.11907
ltibia 69.7259
lfoot -13.6814 -1.8026
ltoes -4.47618
69
root 3.02312 16.69 -11.0495 6.86603 16.3966 -4.0165
lowerback 18.2044 0.517166 7.13318
upperback 1.62423 2.5531 4.44141
thorax -8.3676 1.06713 0.129958
lowerneck -17.2091 -5.38845 -5.00676
upperneck 11.2436 -5.86983 -1.24934
head 6.33272 -3.16537 -0.211523
rclavicle 7.15625e-015 2.22639e-014
rhumerus -42.6576 8.1071 -68.348
rradius 94.3981
rwrist -7.87892
rhand -31.2242 9.58461
rfingers 7.12502
rthumb -4.49966 -20.3476
lclavicle 7.15625e-015 2.22639e-014
lhumerus -55.981 -11.2785 102.667
lradius 114.092
lwrist 8.93154
lhand -18.1544 -13.1233
lfingers 7.12502
lthumb 8.12129 16.7007
rfemur 0.236962 3.57105 8.27961
rtibia 39.4047
rfoot 6.55634 -28.3328
rtoes -31.8299
lfemur -54.7051 -1.8243 -3.81179
ltibia 65.8358
lfoot -11.6358 -1.82116
ltoes -4.39178
70
root 3.18621 16.7568 -10.5648 6.95664 16.6866 -3.8325
lowerback 17.5997 0.647364 6.50317
upperback 1.58567 2.51656 4.1955
thorax -8.09007 1.07452 0.234448
lowerneck -17.0566 -5.6018 -5.28563
upperneck 11.54 -6.19647 -0.606681
head 6.4381 -3.28404 0.000750479
rclavicle 1.47101e-014 4.45278e-014
rhumerus -43.3582 8.37821 -68.8263
rradius 93.9394
rwrist -8.112
rhand -31.0419 9.28275
rfingers 7.12502
rthumb -4.32359 -20.6531
lclavicle 1.47101e-014 4.45278e-014
lhumerus -56.2636 -10.8414 101.832
lradius 114.408
lwrist 8.3599
lhand -18.1849 -13.2431
lfingers 7.12502
lthumb 8.09187 16.5819
rfemur 1.58007 4.08811 9.00793
rtibia 39.1982
rfoot 8.46536 -27.8672
rtoes -29.8038
lfemur -54.08 -2.47086 -2.50895
ltibia 61.9692
lfoot -9.41648 -1.71425
ltoes -4.5174
71
root 3.34492 16.8108 -10.0794 7.04428 16.9135 -3.6369
lowerback 16.9986 0.785759 5.79376
upperback 1.55573 2.48292 3.91792
thorax -7.80604 1.08422 0.350528
lowerneck -16.8903 -5.80964 -5.581
upperneck 11.8255 -6.52751 0.102797
head 6.54411 -3.3992 0.2369
rclavicle 3.73715e-014 1.11319e-014
rhumerus -44.1279 8.56737 -69.3879
rradius 93.3723
rwrist -8.20697
rhand -30.8418 8.9351
rfingers 7.12502
rthumb -4.13036 -21.0046
lclavicle 3.73715e-014 1.11319e-014
lhumerus -56.4209 -10.5792 100.908
lradius 114.738
lwrist 7.97886
lhand -18.2012 -13.3015
lfingers 7.12502
lthumb 8.07616 16.5241
rfemur 2.65698 4.61279 9.79858
rtibia 39.4605
rfoot 9.70818 -26.6582
rtoes -29.1275
lfemur -53.3268 -3.15189 -1.19311
ltibia 58.1991
lfoot -7.08479 -1.5068
ltoes -4.98021
72
root 3.49997 16.8504 -9.59394 7.1163 17.0869 -3.44108
lowerback 16.4138 0.920133 5.04665
upperback 1.5333 2.44637 3.6033
thorax -7.52221 1.09153 0.450615
lowerneck -16.693 -6.00928 -5.89151
upperneck 12.0814 -6.86163 0.881577
head 6.64239 -3.51 0.498537
rclavicle 7.55382e-015 1.51076e-014
rhumerus -44.9659 8.68718 -70.0441
rradius 92.721
rwrist -8.1814
rhand -30.6223 8.55005
rfingers 7.12502
rthumb -3.9184 -21.3937
lclavicle 7.55382e-015 1.51076e-014
lhumerus -56.449 -10.4882 99.8769
lradius 115.084
lwrist 7.74582
lhand -18.1852 -13.3092
lfingers 7.12502
lthumb 8.09159 16.5159
rfemur 3.46161 5.09799 10.6506
rtibia 40.2381
rfoot 10.2364 -24.7492
rtoes -29.8503
lfemur -52.4762 -3.8833 0.139485
ltibia 54.6039
lfoot -4.72038 -1.24429
ltoes -5.88139
